<?xml version="1.0" encoding="UTF-8"?>
<svg version="1.1" xmlns="http://www.w3.org/2000/svg" width="1758" height="412">
<path d="M0 0 C1.1113028 0.00303635 1.1113028 0.00303635 2.24505615 0.00613403 C3.02297012 0.00438171 3.80088409 0.00262939 4.60237122 0.00082397 C7.2063514 -0.00361515 9.81026457 -0.00063902 12.41424561 0.00271606 C14.24992384 0.00204112 16.08560198 0.00106952 17.92127991 -0.00018311 C21.80460445 -0.00166479 25.68790614 0.00050039 29.57122803 0.00515747 C33.47586601 0.00962274 37.38045749 0.00982002 41.28509521 0.00515747 C54.47066 -0.01052729 67.65486676 0.02966592 80.84002686 0.13552856 C82.19626537 0.14526451 82.19626537 0.14526451 83.57990265 0.15519714 C88.82121097 0.19475419 94.0613822 0.25713924 99.30198097 0.35260391 C100.88871912 0.37917622 102.47557324 0.3997124 104.0624752 0.41335678 C117.96603013 0.54426467 132.63604696 2.0048085 143.84002686 11.13552856 C150.26922719 17.84659363 151.9968436 23.97114909 151.93817139 33.09768677 C151.78353367 37.88414725 151.23383434 42.58075593 150.59002686 47.32302856 C150.48045654 48.25566528 150.37088623 49.188302 150.25799561 50.14920044 C149.19352596 58.12151786 147.16728594 64.85970135 140.71502686 70.07302856 C140.03182373 70.638927 139.34862061 71.20482544 138.64471436 71.78787231 C136.84002686 73.13552856 136.84002686 73.13552856 134.84002686 74.13552856 C135.64826904 74.45005981 136.45651123 74.76459106 137.28924561 75.08865356 C138.35787842 75.51662231 139.42651123 75.94459106 140.52752686 76.38552856 C141.58326904 76.80318481 142.63901123 77.22084106 143.72674561 77.65115356 C148.19964402 79.78377765 151.66330245 82.45684219 154.52752686 86.51052856 C154.92326904 87.05451294 155.31901123 87.59849731 155.72674561 88.15896606 C159.18402487 94.2971531 159.1551844 100.15045069 159.09002686 107.01052856 C159.08325928 108.03122437 159.0764917 109.05192017 159.06951904 110.10354614 C158.83226881 127.65316652 157.23528742 144.64169139 144.84002686 158.13552856 C130.8753277 170.3906849 115.02438566 173.6297823 96.78216553 173.49197388 C95.44183723 173.49276746 94.10150918 173.49487299 92.76118469 173.49816895 C89.17103841 173.50323697 85.58118605 173.48990912 81.99108672 173.47264194 C78.21998232 173.45746293 74.44887946 173.4587769 70.67774963 173.45797729 C64.36289527 173.45430462 58.04815093 173.4394267 51.7333374 173.41677856 C43.62000521 173.38773984 35.50676059 173.37753692 27.39338207 173.37309647 C20.40798502 173.36912568 13.42260707 173.3566371 6.43722367 173.3427496 C4.19297914 173.33864897 1.94873528 173.33572461 -0.29551125 173.33295441 C-4.45845604 173.32717285 -8.62132211 173.31250971 -12.78424072 173.29666138 C-14.03035126 173.29554352 -15.27646179 173.29442566 -16.56033325 173.29327393 C-17.68580063 173.28756378 -18.81126801 173.28185364 -19.97084045 173.27597046 C-20.95464597 173.2729958 -21.93845148 173.27002113 -22.95206928 173.26695633 C-25.15997314 173.13552856 -25.15997314 173.13552856 -26.15997314 172.13552856 C-26.11595263 169.76497675 -26.00486045 167.4376859 -25.83758545 165.07484436 C-25.78912838 164.35508736 -25.7406713 163.63533035 -25.69074583 162.89376253 C-25.14690173 155.26932513 -24.25962706 147.69012572 -23.31817627 140.10647583 C-23.13207121 138.57871164 -22.94636889 137.05089835 -22.7610321 135.52304077 C-22.26334327 131.43053288 -21.75980536 127.33876566 -21.25485802 123.2471478 C-20.72524475 118.94922469 -20.20037241 114.65072205 -19.67474365 110.35231018 C-18.79379572 103.15455142 -17.90894902 95.95728004 -17.02178955 88.76028442 C-15.99552361 80.43434864 -14.97583492 72.10762647 -13.95949793 63.78047329 C-12.97940209 55.75169614 -11.99446031 47.72352049 -11.00737 39.69560051 C-10.58788546 36.28312734 -10.17016496 32.87044501 -9.75386047 29.45758247 C-9.26529193 25.45395461 -8.77251867 21.4508668 -8.27641487 17.44816589 C-8.09471703 15.97649327 -7.91450618 14.50463622 -7.7358532 13.03259087 C-7.49282142 11.0320783 -7.24399047 9.03227273 -6.99481201 7.03251648 C-6.85692009 5.91119607 -6.71902817 4.78987566 -6.5769577 3.63457584 C-5.84361479 -0.76045167 -4.07936319 0.01716684 0 0 Z M8.84002686 17.13552856 C7.65899885 23.99374728 6.54905747 30.83687223 5.76971436 37.75271606 C5.68376007 38.49836823 5.59780579 39.24402039 5.50924683 40.01226807 C5.33135754 41.56294598 5.1549958 43.11379989 4.98016357 44.66482544 C4.71304767 47.02803872 4.43892551 49.3903713 4.16424561 51.75271606 C3.99065125 53.27350183 3.81745958 54.79433362 3.64471436 56.31521606 C3.56349335 57.01218597 3.48227234 57.70915588 3.39859009 58.42724609 C2.96143907 62.35502793 2.81012405 66.18683478 2.84002686 70.13552856 C16.17536331 70.22849998 29.51062174 70.29943105 42.84621716 70.34277725 C49.0395019 70.36358871 55.23256373 70.3917884 61.42572021 70.43728638 C67.41040021 70.48097409 73.39486674 70.50471404 79.37969398 70.51503754 C81.65488351 70.52238788 83.9300623 70.53674064 86.20516014 70.55844879 C107.5083193 71.06645222 107.5083193 71.06645222 126.19158936 61.82693481 C133.01257941 54.82814644 134.84241017 46.98411671 135.15252686 37.44802856 C135.02456744 31.72184451 133.82831839 28.1238201 129.71502686 24.01052856 C120.91405224 18.27076251 113.04290193 16.98314115 102.7255249 17.02200317 C101.71042343 17.02185715 100.69532196 17.02171112 99.64945984 17.02156067 C96.30019989 17.02225634 92.95099582 17.03003259 89.60174561 17.03787231 C87.27718638 17.03973772 84.95262677 17.04116105 82.62806702 17.04216003 C76.51411857 17.04597554 70.40019393 17.05579761 64.28625488 17.06686401 C58.04571861 17.07709889 51.80517848 17.08166211 45.56463623 17.08670044 C33.32308932 17.09742072 21.08156007 17.11448557 8.84002686 17.13552856 Z M0.84002686 87.13552856 C-0.82018478 98.01202861 -2.45966145 108.88153892 -3.76544189 119.80740356 C-3.89437332 120.86671082 -4.02330475 121.92601807 -4.15614319 123.01742554 C-4.55587083 126.30648238 -4.95176608 129.59598587 -5.34747314 132.88552856 C-5.62260606 135.15509107 -5.89799529 137.42462252 -6.17364502 139.69412231 C-6.83869793 145.17423798 -7.50063067 150.65472307 -8.15997314 156.13552856 C20.44386438 156.75245658 49.05117927 157.25738546 77.66192627 157.3677063 C80.26278573 157.37950671 82.86362719 157.39652344 85.4644165 157.41897583 C89.12619434 157.44897395 92.78751492 157.45888581 96.44940186 157.46365356 C97.51392578 157.47596008 98.57844971 157.4882666 99.67523193 157.50094604 C111.57395534 157.46634852 123.61349531 155.44258094 132.80487061 147.42068481 C140.10886696 139.86961881 142.5070311 130.39179779 142.84002686 120.13552856 C142.8866748 119.10637329 142.8866748 119.10637329 142.93426514 118.056427 C143.03420392 115.68702409 143.09782035 113.31888356 143.15252686 110.94802856 C143.19748291 109.8070874 143.19748291 109.8070874 143.24334717 108.64309692 C143.30016938 102.98125768 142.16988461 99.75049438 138.84002686 95.13552856 C136.61814364 93.15383398 136.61814364 93.15383398 134.09002686 91.82302856 C133.29080811 91.35252075 132.49158936 90.88201294 131.66815186 90.39724731 C124.12740771 87.03307555 117.04692027 86.85500393 108.91619873 86.90847778 C107.74460205 86.90818573 106.57300537 86.90789368 105.36590576 86.90759277 C101.51345276 86.90898032 97.66119586 86.92451466 93.80877686 86.94021606 C91.12977776 86.94394824 88.45078936 86.9468927 85.77178955 86.9487915 C79.45381393 86.95499017 73.13590811 86.97137898 66.81796312 86.99149048 C59.62082645 87.0138999 52.42368632 87.02485556 45.2265234 87.03488135 C30.43098897 87.05574677 15.63550913 87.09089115 0.84002686 87.13552856 Z " fill="#000000" transform="translate(546.1599731445313,51.864471435546875)"/>
<path d="M0 0 C15.3523886 -0.09391012 30.70475539 -0.16420586 46.05736446 -0.20724869 C53.187674 -0.22777549 60.3178039 -0.25570395 67.44799805 -0.30175781 C73.67084706 -0.34193159 79.89356585 -0.36750438 86.11654097 -0.37635398 C89.40423774 -0.38151783 92.69148061 -0.39562084 95.97907829 -0.42292023 C135.34124767 -0.73651152 135.34124767 -0.73651152 149.8125 12.1875 C156.0136101 18.87893043 157.25844249 25.9094964 157.13549805 34.76489258 C156.92117905 39.88190356 156.3583661 44.92480564 155.6875 50 C155.54997314 51.04873291 155.41244629 52.09746582 155.27075195 53.17797852 C153.33006582 67.44185513 150.94352661 78.95074812 139.3046875 88.4375 C123.30236627 99.28653135 103.14420194 98.42600107 84.6875 98.29296875 C82.37866494 98.28736088 80.06982626 98.28309643 77.76098633 98.28010559 C71.73752673 98.26875053 65.71429044 98.23936552 59.69091797 98.20599365 C53.52314269 98.1750895 47.35533069 98.16155712 41.1875 98.14648438 C29.12490287 98.11448542 17.06247013 98.06340446 5 98 C4.94671036 98.91608536 4.89342072 99.83217072 4.83851624 100.77601624 C4.28745152 109.68253359 3.4517195 118.5106834 2.37109375 127.37109375 C2.21713638 128.65943619 2.06317902 129.94777863 1.90455627 131.27516174 C1.5019465 134.64390443 1.09471762 138.01207183 0.68640137 141.38012695 C0.26786638 144.83966041 -0.14612827 148.2997371 -0.56054688 151.75976562 C-1.36934674 158.50703875 -2.18346651 165.25365844 -3 172 C-8.61 172 -14.22 172 -20 172 C-19.38418375 161.72171406 -18.46801021 151.54249424 -17.25 141.31567383 C-17.07382303 139.81261819 -16.89797029 138.30952452 -16.72241211 136.80639648 C-16.25066948 132.77574068 -15.77427438 128.74564803 -15.29681396 124.71566606 C-14.79571766 120.48046226 -14.29853682 116.24479852 -13.80078125 112.00920105 C-12.96616693 104.91231674 -12.12855527 97.81579122 -11.2890625 90.71948242 C-10.31897229 82.51894669 -9.35344583 74.31788339 -8.3903656 66.11652166 C-7.46109731 58.20381785 -6.52887487 50.2914649 -5.59521484 42.37927818 C-5.19878168 39.01943281 -4.80334067 35.65947286 -4.40869141 32.2994175 C-3.94487941 28.35180838 -3.47846934 24.40451469 -3.01004028 20.45745087 C-2.83862113 19.00953642 -2.6680884 17.56151671 -2.49850464 16.11338615 C-2.26704319 14.13815722 -2.03205064 12.16334301 -1.796875 10.18855286 C-1.66635742 9.08344769 -1.53583984 7.97834253 -1.40136719 6.83974934 C-1.06944324 4.49132418 -0.63654789 2.2809853 0 0 Z M14 17 C13.72981926 18.69672887 13.52034779 20.40317437 13.33569336 22.11132812 C13.21564438 23.20336548 13.0955954 24.29540283 12.97190857 25.42053223 C12.84582718 26.61206909 12.71974579 27.80360596 12.58984375 29.03125 C12.45808243 30.25146851 12.32632111 31.47168701 12.19056702 32.72888184 C11.84034892 35.98675606 11.49449718 39.24506108 11.14996338 42.50354004 C10.80055289 45.78685435 10.44119472 49.06908903 10.08398438 52.3515625 C9.81451446 54.86972863 9.54561629 57.38795602 9.27734375 59.90625 C9.14923813 61.08159302 9.02113251 62.25693604 8.8891449 63.46789551 C8.77224808 64.58515015 8.65535126 65.70240479 8.53491211 66.85351562 C8.43133896 67.8253479 8.32776581 68.79718018 8.22105408 69.79846191 C7.93988219 73.87068947 7.95622305 77.92001178 8 82 C20.96148118 82.06970861 33.92291727 82.12291697 46.88454819 82.15543652 C52.90405683 82.17104932 58.9234366 82.19220724 64.94287109 82.22631836 C70.75895697 82.25906846 76.57491938 82.27688595 82.39109039 82.28463173 C84.60289705 82.29014723 86.81469744 82.30091721 89.02645111 82.31719017 C112.28183854 82.71798878 112.28183854 82.71798878 131.78125 71.25390625 C136.37339754 65.84012447 137.71940867 59.86167592 139 53 C139.3403125 51.2984375 139.3403125 51.2984375 139.6875 49.5625 C141.00654146 36.59221729 141.00654146 36.59221729 136 25 C131.07593424 19.93524665 123.01264895 16.30066793 115.90201283 15.87415886 C115.1474414 15.87378183 114.39286997 15.87340481 113.61543274 15.87301636 C112.30936569 15.86878662 112.30936569 15.86878662 110.97691345 15.86447144 C110.02973953 15.86649567 109.08256561 15.8685199 108.10668945 15.87060547 C107.10309387 15.86885315 106.09949829 15.86710083 105.06549072 15.86529541 C101.74806998 15.86089369 98.43070253 15.86380834 95.11328125 15.8671875 C92.81210825 15.86651414 90.51093533 15.86554384 88.20976257 15.86428833 C83.38877688 15.86281377 78.56780971 15.86495878 73.74682617 15.86962891 C67.55236245 15.87533565 61.35794196 15.87203968 55.1634798 15.86605644 C50.41360647 15.86245251 45.66374349 15.86358847 40.91386986 15.86618423 C38.62879621 15.86685347 36.34372163 15.86602519 34.05864906 15.86370468 C30.87411614 15.86117988 27.68965453 15.86501587 24.50512695 15.87060547 C23.55188034 15.86858124 22.59863373 15.86655701 21.61650085 15.86447144 C20.75424896 15.86729126 19.89199707 15.87011108 19.00361633 15.87301636 C18.25017598 15.87339338 17.49673563 15.87377041 16.72046375 15.87415886 C14.96822598 15.81389396 14.96822598 15.81389396 14 17 Z " fill="#000000" transform="translate(1201,58)"/>
<path d="M0 0 C12.60487026 -0.06965442 25.20969438 -0.12288967 37.81471825 -0.15543652 C43.66837765 -0.17106105 49.52190491 -0.19224068 55.37548828 -0.22631836 C61.02946895 -0.25902628 66.68332288 -0.27687716 72.3373909 -0.28463173 C74.48944721 -0.29015473 76.64149695 -0.30093965 78.79349899 -0.31719017 C81.81870003 -0.3391163 84.84338404 -0.34196058 87.86865234 -0.34057617 C88.74907196 -0.351362 89.62949158 -0.36214783 90.53659058 -0.3732605 C100.36981175 -0.32488819 109.59136582 2.33808586 117 9 C123.56727318 16.92878103 124.47015987 27.79832184 123.64794922 37.71728516 C123.38539748 40.07668066 123.10357191 42.43399378 122.8046875 44.7890625 C122.65597198 46.05414642 122.50725647 47.31923035 122.35403442 48.62265015 C122.03771414 51.2778681 121.71483247 53.93116685 121.37988281 56.58398438 C120.95544277 59.95108645 120.55852808 63.32074214 120.17020988 66.69217873 C119.7911241 69.95529554 119.39090224 73.21579502 118.9921875 76.4765625 C118.78406937 78.2660582 118.78406937 78.2660582 118.57174683 80.09170532 C116.75749647 94.20943799 112.44762013 105.9542989 101.375 115.2421875 C89.48803717 124.04010406 74.11857056 123.31524998 59.96484375 123.30078125 C58.35307203 123.30468111 56.74130131 123.30901836 55.12953186 123.31376648 C51.77373908 123.32117133 48.41805163 123.32097845 45.06225586 123.31567383 C40.79374387 123.30987076 36.52566461 123.32685836 32.25722408 123.3500185 C28.93605595 123.36484948 25.61499002 123.36561518 22.29379463 123.36250877 C20.72115786 123.36301676 19.14851456 123.36815445 17.57591057 123.37832069 C-6.00731501 123.51217393 -6.00731501 123.51217393 -15.24609375 115.81640625 C-22.93547951 107.8530112 -24.30021729 100.67142226 -24.14453125 90.01171875 C-23.84314976 79.41436161 -20.05098985 70.13547898 -12.875 62.1875 C-3.20939333 53.21383833 7.67995211 51.79840493 20.1875 51.4375 C21.22290924 51.40573166 21.22290924 51.40573166 22.27923584 51.37332153 C50.16692724 50.55034603 78.10332523 50.91615369 106 51 C106.25689844 47.31388977 106.4754918 43.62644276 106.6875 39.9375 C106.76033203 38.89916016 106.83316406 37.86082031 106.90820312 36.79101562 C107.2398452 30.64588297 107.15268994 26.36029433 104 21 C99.79832809 17.6736764 96.30959558 15.89025507 90.95674133 15.84178162 C90.1364444 15.8319928 89.31614746 15.82220398 88.47099304 15.81211853 C87.12663933 15.80348534 87.12663933 15.80348534 85.75512695 15.79467773 C84.80859253 15.78477814 83.86205811 15.77487854 82.88684082 15.76467896 C79.75401319 15.73305761 76.62117039 15.70830394 73.48828125 15.68359375 C71.31780093 15.66302478 69.14732463 15.64202832 66.97685242 15.62062073 C61.26076504 15.56539423 55.54464147 15.51598745 49.82849121 15.46777344 C43.99695613 15.41756267 38.16547367 15.36187438 32.33398438 15.30664062 C20.88936786 15.19905196 9.44470568 15.09760852 -2 15 C-1.85816304 13.24967156 -1.71136571 11.49974466 -1.5625 9.75 C-1.48128906 8.77546875 -1.40007813 7.8009375 -1.31640625 6.796875 C-1.04845144 4.42828679 -0.60416008 2.29623832 0 0 Z M-3.5 75.1875 C-6.72724991 79.38110158 -7.48040573 83.82841327 -8 89 C-8.0825 89.72832031 -8.165 90.45664063 -8.25 91.20703125 C-8.5627948 96.31927123 -7.35650634 99.20184809 -4 103 C1.96591036 106.68109363 7.38019024 107.12428665 14.27783203 107.17700195 C14.99241074 107.18357315 15.70698944 107.19014435 16.44322205 107.19691467 C18.79808681 107.21655394 21.15288798 107.22829129 23.5078125 107.23828125 C24.31693966 107.24235678 25.12606682 107.2464323 25.95971298 107.25063133 C30.24527476 107.27145547 34.5308049 107.2857711 38.81640625 107.29516602 C43.21758657 107.30620314 47.61825754 107.34058204 52.0192585 107.38033772 C55.42531195 107.40662838 58.83124646 107.41486897 62.23739243 107.41844749 C63.8583303 107.42328393 65.47926393 107.43481272 67.10010147 107.45348549 C82.017342 107.77301803 82.017342 107.77301803 94.98904419 101.24971008 C99.94762458 95.93264508 101.30964773 90.29175791 102.125 83.1875 C102.25455078 82.17719727 102.25455078 82.17719727 102.38671875 81.14648438 C102.80298035 77.694156 103.01805241 74.33511207 103.00949097 70.85639954 C103.00479294 68.94748177 103.00479294 68.94748177 103 67 C91.04711794 66.88388051 79.09437125 66.79517009 67.14103889 66.74093914 C61.58991624 66.71490398 56.03918099 66.67961692 50.48828125 66.62280273 C45.12604873 66.56826632 39.76418763 66.53853377 34.40169907 66.52561378 C32.36124708 66.51641268 30.32081422 66.49844521 28.28052139 66.47134972 C10.8998883 66.20073695 10.8998883 66.20073695 -3.5 75.1875 Z " fill="#000000" transform="translate(850,102)"/>
<path d="M0 0 C1.81895279 -0.00464516 1.81895279 -0.00464516 3.6746521 -0.00938416 C5.01886012 -0.00757542 6.3630679 -0.00558135 7.70727539 -0.00341797 C9.09428945 -0.00455876 10.48130328 -0.00603463 11.86831665 -0.00782776 C15.58086456 -0.01084232 19.29336719 -0.00661176 23.00590897 0.00021744 C25.29583955 0.00437801 27.58576924 0.00734343 29.8757019 0.01010132 C64.71694066 0.05777912 64.71694066 0.05777912 78.87991333 0.39385986 C80.86443499 0.44035986 82.84921792 0.4752609 84.83398438 0.50976562 C95.31496686 0.82949744 102.68906276 2.56058836 110.41821289 9.87158203 C117.0476724 17.55059525 117.70907762 26.4214751 117.36743164 36.12939453 C117.07916501 40.05540949 116.65280584 43.95807096 116.19555664 47.86767578 C116.07186707 48.95090622 115.94817749 50.03413666 115.82073975 51.15019226 C115.55835454 53.42708976 115.29262182 55.70360378 115.02368164 57.97973633 C114.61990304 61.4208327 114.23536296 64.86372744 113.85180664 68.30712891 C109.7701762 103.85827162 109.7701762 103.85827162 95.43774414 115.62939453 C87.35275839 121.48719553 78.65740612 123.43181077 68.81518555 123.41992188 C68.00102676 123.4266391 67.18686798 123.43335632 66.34803772 123.4402771 C63.67995963 123.45913911 61.01213459 123.46317507 58.34399414 123.46533203 C56.47366231 123.47176742 54.60333148 123.47849632 52.73300171 123.48550415 C48.82108223 123.49744689 44.90925086 123.501188 40.99731445 123.5 C36.00534811 123.49979681 31.01395105 123.52711217 26.02211952 123.56154442 C22.16144252 123.58387068 18.3009014 123.58783581 14.44016647 123.58678055 C12.60071219 123.58912737 10.76125364 123.59789865 8.92186356 123.61344528 C-3.84254578 123.71124726 -14.16258315 123.23307764 -23.94116211 114.06689453 C-30.4081445 106.65898861 -31.05269507 98.58792289 -30.63256836 89.12939453 C-29.69361784 77.90816616 -25.10324879 68.5366651 -16.83178711 60.84814453 C-7.610978 53.64182836 2.68790164 51.80639306 14.10986328 51.90234375 C15.03776672 51.9020517 15.96567017 51.90175964 16.92169189 51.90145874 C19.95708916 51.90284054 22.99223406 51.91834715 26.02758789 51.93408203 C28.14464687 51.93781625 30.26170759 51.94066129 32.37876892 51.94265747 C37.92716313 51.95026169 43.47545119 51.96988241 49.02380371 51.99206543 C54.69497238 52.01259326 60.36615834 52.02167398 66.03735352 52.03173828 C77.14742598 52.05313149 88.25741995 52.0872284 99.36743164 52.12939453 C99.52960623 50.20796622 99.69119625 48.28648857 99.85253906 46.36499023 C99.94258713 45.29497269 100.03263519 44.22495514 100.12541199 43.12251282 C101.41391958 30.82842406 101.41391958 30.82842406 96.36743164 20.12939453 C91.83369472 17.29580896 87.58702057 16.02031665 82.27984619 15.97117615 C81.4750029 15.96138733 80.67015961 15.95159851 79.84092712 15.94151306 C78.96698807 15.9357576 78.09304901 15.93000214 77.19262695 15.92407227 C76.26545364 15.91417267 75.33828033 15.90427307 74.38301086 15.89407349 C71.32055204 15.86250403 68.2580777 15.837719 65.19555664 15.81298828 C63.07134601 15.79241483 60.94713944 15.77141825 58.82293701 15.75001526 C53.23345223 15.69483504 47.64393074 15.64540786 42.05438232 15.59716797 C36.35010514 15.54692341 30.64588122 15.49125276 24.94165039 15.43603516 C13.75028965 15.3285031 2.55888265 15.22704709 -8.63256836 15.12939453 C-8.32513933 12.81621493 -8.01149134 10.50386101 -7.69506836 8.19189453 C-7.4340332 6.26023437 -7.4340332 6.26023437 -7.16772461 4.28955078 C-6.29876047 -0.84177759 -4.85481137 0.00361751 0 0 Z M-8.69506836 75.06689453 C-13.7987211 81.34351392 -14.69703867 88.21029177 -14.63256836 96.12939453 C-13.02677876 101.4190544 -10.38624461 103.45545164 -5.63256836 106.12939453 C-2.00166124 107.3396969 1.39457943 107.36119569 5.17993164 107.44580078 C5.96923569 107.46671783 6.75853973 107.48763489 7.57176208 107.50918579 C10.17021464 107.57579697 12.76875821 107.63458371 15.36743164 107.69189453 C16.6966716 107.72266586 16.6966716 107.72266586 18.05276489 107.75405884 C30.21831878 108.03250472 42.38541928 108.25030038 54.55419922 108.30563354 C56.0398961 108.31306686 57.5255809 108.32368276 59.01123047 108.337677 C72.84007819 108.68176025 72.84007819 108.68176025 85.61743164 104.00439453 C86.22071289 103.65119141 86.82399414 103.29798828 87.44555664 102.93408203 C94.46265311 96.34485729 95.38096197 88.89133596 96.17993164 79.62939453 C96.30045898 78.42541016 96.42098633 77.22142578 96.54516602 75.98095703 C96.83775048 73.03170568 97.11128014 70.08199517 97.36743164 67.12939453 C85.69255182 67.03644108 74.01776101 66.9655012 62.34258556 66.92214584 C56.92047682 66.90133042 51.49862251 66.87312367 46.07666016 66.82763672 C40.83762954 66.78396284 35.59884264 66.76021203 30.35964394 66.74988556 C28.36748739 66.74253272 26.37534317 66.72817489 24.38329124 66.7064743 C6.28847242 66.12512579 6.28847242 66.12512579 -8.69506836 75.06689453 Z " fill="#000000" transform="translate(1390.632568359375,106.87060546875)"/>
<path d="M0 0 C1.89324509 -0.01925285 1.89324509 -0.01925285 3.82473755 -0.03889465 C5.1915853 -0.04706604 6.55843756 -0.05450901 7.92529297 -0.0612793 C8.62192928 -0.06535482 9.3185656 -0.06943035 10.0363121 -0.07362938 C13.72651616 -0.09442431 17.4166838 -0.10875215 21.10693359 -0.11816406 C24.88586831 -0.12919257 28.66420842 -0.16356941 32.44293404 -0.20333576 C35.37721727 -0.22969394 38.31136309 -0.23787289 41.24575424 -0.24144554 C42.6370023 -0.24626504 44.02824619 -0.25774362 45.41937637 -0.27648354 C56.02017875 -0.41037189 67.48727591 0.30974677 75.60498047 7.98950195 C82.18087965 14.45837927 83.3468157 21.25699052 83.54248047 30.17700195 C83.43676567 42.726859 80.61224952 53.12457472 71.54248047 62.17700195 C59.74341267 71.2593096 47.35264326 71.60288143 33.06591797 71.4699707 C31.28659424 71.46436604 29.50726583 71.46010006 27.72793579 71.45710754 C23.07544875 71.44572723 18.42324872 71.41631978 13.77087402 71.38299561 C9.01118857 71.35214674 4.25145612 71.33857073 -0.50830078 71.32348633 C-9.8248322 71.29144267 -19.14115187 71.24033009 -28.45751953 71.17700195 C-28.52522049 71.86583969 -28.59292145 72.55467743 -28.66267395 73.26438904 C-28.75199692 74.16681839 -28.84131989 75.06924774 -28.93334961 75.99902344 C-29.02167557 76.89411118 -29.11000153 77.78919891 -29.20100403 78.71141052 C-29.46296922 81.22938361 -29.80438476 83.73119133 -30.14501953 86.23950195 C-30.76120262 92.66396821 -30.20227721 97.96068815 -26.14501953 103.11450195 C-21.69973973 106.52599575 -18.04753561 107.42464632 -12.48754883 107.47998047 C-11.30408371 107.49662247 -10.12061859 107.51326447 -8.90129089 107.53041077 C-7.62433853 107.53882492 -6.34738617 107.54723907 -5.03173828 107.5559082 C-3.68389234 107.57213162 -2.33605766 107.58931644 -0.98823547 107.60740662 C2.57154927 107.65307584 6.13135151 107.68781402 9.69128418 107.71960449 C15.30393053 107.77121867 20.9164329 107.83730313 26.52889633 107.90574265 C27.9028871 107.92249222 29.27688266 107.93885347 30.65088272 107.95482254 C43.2937462 108.10523093 55.91502659 108.54087633 68.54248047 109.17700195 C68.60226308 118.83189326 68.60226308 118.83189326 67.54248047 123.17700195 C64.47375102 124.71136668 61.2545829 124.33311549 57.88671875 124.33813477 C57.09615585 124.34309967 56.30559296 124.34806458 55.49107361 124.35317993 C52.86497127 124.36782897 50.23892954 124.37461179 47.61279297 124.38012695 C45.78351846 124.38588077 43.95424397 124.39163847 42.12496948 124.3973999 C38.27976195 124.40792082 34.43457537 124.41375482 30.58935547 124.41723633 C25.68944744 124.42269156 20.78982145 124.44665071 15.8900013 124.47520828 C12.10473867 124.493952 8.31954199 124.49904669 4.53423691 124.5005722 C2.72993317 124.50357817 0.92563002 124.51153625 -0.87862778 124.52475739 C-14.71016716 124.61878816 -28.46059879 124.55909895 -39.17236328 114.5793457 C-45.07884066 108.23963038 -46.98572902 101.24472294 -46.81689453 92.77075195 C-46.80809265 91.96238892 -46.79929077 91.15402588 -46.79022217 90.32116699 C-46.56585765 80.15332079 -45.36084921 70.07015349 -44.11376953 59.9855957 C-43.70487522 56.65546605 -43.32247235 53.3229733 -42.94189453 49.98950195 C-42.68305295 47.83306231 -42.4226904 45.67680457 -42.16064453 43.52075195 C-42.050047 42.54344116 -41.93944946 41.56613037 -41.82550049 40.5592041 C-40.2174766 27.95936789 -35.71393311 15.66336856 -25.51220703 7.5246582 C-17.44504358 2.23345784 -9.58251885 0.08535316 0 0 Z M-20.02001953 24.1027832 C-24.0126574 29.86389926 -25.02773662 35.47224791 -25.64501953 42.30200195 C-25.726875 43.08704102 -25.80873047 43.87208008 -25.89306641 44.6809082 C-26.27989037 48.5361454 -26.47143168 52.30053354 -26.45751953 56.17700195 C-16.42582821 56.26987628 -6.39423997 56.34085524 3.63779449 56.38425064 C8.29660785 56.40508332 12.95512603 56.43332157 17.61376953 56.47875977 C22.11363101 56.52237225 26.6132094 56.54617153 31.11326599 56.55651093 C32.82600864 56.56387475 34.53873662 56.57825451 36.25135803 56.59992218 C50.50075073 56.87021626 50.50075073 56.87021626 62.35498047 49.48950195 C67.15921058 42.21452493 68.55149676 34.84348434 67.54248047 26.17700195 C65.84496678 21.97788914 63.27503576 19.69430669 59.54248047 17.17700195 C55.5137648 15.60651423 52.11687466 14.92051227 47.8034668 14.88647461 C46.69824173 14.8737149 45.59301666 14.8609552 44.45429993 14.84780884 C43.27296982 14.84558319 42.09163971 14.84335754 40.87451172 14.84106445 C39.64391525 14.83440765 38.41331879 14.82775085 37.14543152 14.82089233 C34.543991 14.81078045 31.94252461 14.80607486 29.34106445 14.80639648 C25.3862766 14.80203646 21.43261697 14.76573465 17.47802734 14.7277832 C14.94352593 14.72191196 12.40901924 14.71794463 9.87451172 14.71606445 C8.11769829 14.6945079 8.11769829 14.6945079 6.32539368 14.67251587 C-3.8988821 14.72863845 -12.7214126 16.56697155 -20.02001953 24.1027832 Z " fill="#000000" transform="translate(224.45751953125,103.822998046875)"/>
<path d="M0 0 C4.95 0 9.9 0 15 0 C14.39026491 12.11060042 13.08478646 23.99097221 11.4375 36 C11.20065597 37.75774306 10.9643251 39.51555535 10.72851562 41.2734375 C10.15823155 45.51644296 9.5810983 49.75846265 9 54 C9.71285156 53.72285156 10.42570312 53.44570312 11.16015625 53.16015625 C12.11792969 52.79792969 13.07570313 52.43570313 14.0625 52.0625 C15.00222656 51.70285156 15.94195313 51.34320313 16.91015625 50.97265625 C24.52333636 48.5760926 32.26485731 48.82447841 40.16796875 48.796875 C41.43917068 48.79117493 42.71037262 48.78547485 44.02009583 48.77960205 C46.70557219 48.77017554 49.39093747 48.76326669 52.07641602 48.75976562 C55.4841785 48.75429993 58.89153765 48.73029308 62.29917431 48.70179367 C65.58874083 48.67846192 68.87833116 48.67670425 72.16796875 48.671875 C73.37462692 48.6595282 74.5812851 48.6471814 75.82450867 48.63446045 C85.90683338 48.66059625 96.2590344 49.46465402 104.25 56.20703125 C111.85741771 64.00123823 114.23439717 72.05184595 114.15625 82.71282959 C113.78907294 90.43746037 112.73058777 98.11441863 111.8125 105.7890625 C111.58779438 107.70285237 111.3636 109.61670232 111.13989258 111.53060913 C110.55314493 116.53867573 109.95950786 121.54590182 109.36437988 126.55297852 C108.75694564 131.67414773 108.15610304 136.79608986 107.5546875 141.91796875 C106.37620229 151.94607792 105.18982066 161.97322944 104 172 C98.72 172 93.44 172 88 172 C88.41996055 161.04102933 89.49198317 150.23817649 90.84765625 139.359375 C90.93535656 138.6537291 91.02305687 137.94808319 91.11341476 137.22105408 C91.94298285 130.56093413 92.78788245 123.90277409 93.63696289 117.24511719 C94.10521568 113.56939072 94.56553508 109.8927337 95.02148247 106.21546173 C95.27681686 104.17598563 95.54120393 102.13782371 95.80592346 100.09954834 C98.19553593 85.7077167 98.19553593 85.7077167 95.3125 71.875 C91.71206401 67.39878229 88.56207921 65.90812801 83 65 C81.11603123 64.9021729 79.22923406 64.85208704 77.34277344 64.83886719 C76.23101746 64.82925964 75.11926147 64.8196521 73.97381592 64.80975342 C72.78105042 64.80550354 71.58828491 64.80125366 70.359375 64.796875 C69.12262024 64.79117493 67.88586548 64.78547485 66.6116333 64.77960205 C63.99581759 64.77016284 61.37999005 64.76362236 58.76416016 64.75976562 C54.77880874 64.75321735 50.79382459 64.71903886 46.80859375 64.6875 C44.26302388 64.68096848 41.71745034 64.67571859 39.171875 64.671875 C37.39487213 64.6533548 37.39487213 64.6533548 35.58197021 64.63446045 C27.15928222 64.65694187 18.79212712 65.34563468 12.33053589 71.39039612 C6.1673492 78.84625605 4.91127328 87.55642163 3.8671875 96.87890625 C3.70376885 98.21739627 3.53870189 99.55568594 3.37210083 100.89378357 C2.93934539 104.40531806 2.5287493 107.91908916 2.12304688 111.43383789 C1.71646378 114.92300915 1.28902668 118.40960899 0.86328125 121.89648438 C-0.2679339 131.20209136 -1.36307081 140.5118081 -2.44372559 149.82342529 C-2.72362626 152.23497806 -3.00483646 154.64637931 -3.28756714 157.05760193 C-3.542643 159.23336984 -3.7945435 161.40951316 -4.04275513 163.58607483 C-4.15481293 164.53985519 -4.26687073 165.49363556 -4.38232422 166.47631836 C-4.5259993 167.72196815 -4.5259993 167.72196815 -4.6725769 168.99278259 C-5 171 -5 171 -6 173 C-7.58323688 173.027193 -9.16661062 173.04648306 -10.75 173.0625 C-11.63171875 173.07410156 -12.5134375 173.08570313 -13.421875 173.09765625 C-15.79348241 173.00782264 -17.72245241 172.6117205 -20 172 C-20.25504054 163.68616127 -19.26635335 155.57481827 -18.27172852 147.33837891 C-18.08571882 145.76563658 -17.90016395 144.1928404 -17.71502686 142.61999512 C-17.21361327 138.37194326 -16.70564397 134.12469928 -16.19627881 129.87759447 C-15.66348467 125.42713318 -15.13619251 120.97601968 -14.60813904 116.5249939 C-13.72147875 109.05838109 -12.83067582 101.59227166 -11.93725586 94.12646484 C-10.90404769 85.49220214 -9.87680958 76.85724548 -8.85287338 68.22187865 C-7.86704906 59.90866026 -6.87762167 51.59587488 -5.88633537 43.28330612 C-5.46463198 39.74681457 -5.04408904 36.21018786 -4.62445259 32.67345047 C-4.13083097 28.51491505 -3.63402676 24.35677191 -3.13473511 20.19891357 C-2.95183301 18.67159344 -2.77001192 17.14414342 -2.5893383 15.61655807 C-2.34301415 13.53548151 -2.09280283 11.45490874 -1.84156799 9.37442017 C-1.70237725 8.20897989 -1.56318651 7.04353962 -1.41977787 5.84278297 C-1 3 -1 3 0 0 Z " fill="#000000" transform="translate(1631,58)"/>
<path d="M0 0 C1.26861877 -0.00960754 2.53723755 -0.01921509 3.84429932 -0.02911377 C5.21748675 -0.03396322 6.59067631 -0.03824169 7.96386719 -0.04199219 C8.6629998 -0.04481956 9.36213242 -0.04764694 10.08245087 -0.05056 C13.78332389 -0.06550437 17.48415841 -0.07476346 21.18505859 -0.07910156 C24.98201633 -0.08457517 28.77861351 -0.10859306 32.57545853 -0.13707352 C35.51823921 -0.15581925 38.46093514 -0.16091182 41.40377045 -0.16243744 C42.80223305 -0.16543831 44.2006951 -0.17337862 45.59909821 -0.18662262 C57.53421647 -0.29158009 67.56105282 0.64649779 76.51074219 9.16113281 C83.72541027 18.27439776 84.10720322 29.18037135 82.8369751 40.3392334 C82.71642761 41.29624146 82.59588013 42.25324951 82.47167969 43.23925781 C82.35048767 44.27360962 82.22929565 45.30796143 82.10443115 46.37365723 C81.70924463 49.72090646 81.29784306 53.06592775 80.88574219 56.41113281 C80.60872149 58.72646498 80.33252445 61.04189584 80.05712891 63.35742188 C77.67045462 83.30799837 75.13433133 103.24042939 72.51074219 123.16113281 C67.56074219 123.16113281 62.61074219 123.16113281 57.51074219 123.16113281 C57.21859426 115.07025825 58.20116217 107.17684484 59.17750549 99.16343307 C59.484803 96.64097641 59.78559542 94.11781489 60.08483887 91.59439087 C60.72093578 86.24092742 61.3656037 80.8885129 62.01074219 75.53613281 C62.75864913 69.32222739 63.50299123 63.10791805 64.24110413 56.89284134 C64.53676423 54.41586898 64.83749831 51.93954833 65.1385498 49.46322632 C65.3207826 47.93596038 65.50280074 46.4086688 65.68457031 44.88134766 C65.76872696 44.20064713 65.85288361 43.51994659 65.93959045 42.81861877 C66.84226473 35.13607377 67.13631388 28.15523939 63.51074219 21.16113281 C58.21955982 16.56010466 53.26729443 16.04794984 46.47045898 15.98413086 C45.2753923 15.97129562 44.08032562 15.95846039 42.8490448 15.94523621 C41.56564713 15.93784927 40.28224945 15.93046234 38.95996094 15.92285156 C37.97233733 15.91673827 37.97233733 15.91673827 36.96476173 15.91050148 C33.4801732 15.88970195 29.99562335 15.87537348 26.51098633 15.8659668 C22.9300333 15.85490946 19.34970282 15.82050084 15.76896954 15.7807951 C12.99869199 15.75453738 10.22856095 15.74626699 7.45816994 15.74268532 C5.50178263 15.73550505 3.5454959 15.7091103 1.58927917 15.68229675 C-6.551856 15.70207009 -12.12900248 16.47427599 -18.51269531 21.87207031 C-18.95871094 22.42121094 -19.40472656 22.97035156 -19.86425781 23.53613281 C-20.32574219 24.08011719 -20.78722656 24.62410156 -21.26269531 25.18457031 C-24.20582689 29.92732375 -24.88088772 35.13924288 -25.51074219 40.59667969 C-25.59560379 41.31633911 -25.68046539 42.03599854 -25.76789856 42.77746582 C-26.04555005 45.14428757 -26.31424468 47.51203676 -26.58300781 49.87988281 C-26.77653117 51.5417784 -26.97067417 53.20360194 -27.16540527 54.86535645 C-27.67647293 59.23887632 -28.18020558 63.61320838 -28.68206787 67.98779297 C-29.48318969 74.95960616 -30.29580196 81.93009018 -31.10774231 88.90065002 C-31.38786331 91.31402189 -31.66509223 93.72771105 -31.94177246 96.14147949 C-32.98277161 105.17177986 -34.14686963 114.1696988 -35.48925781 123.16113281 C-40.64097404 123.2515138 -45.40838985 123.00794414 -50.48925781 122.16113281 C-50.78792905 113.25460337 -49.66912559 104.5079676 -48.66113281 95.67675781 C-48.46885003 93.97199423 -48.27665185 92.26722111 -48.08453369 90.56243896 C-47.68137513 86.99821756 -47.27382013 83.43452843 -46.86376953 79.87109375 C-46.34314446 75.33947576 -45.83863557 70.80622248 -45.33814621 66.27234268 C-44.94678619 62.75199555 -44.54409015 59.23300913 -44.13840485 55.7142868 C-43.94781116 54.04526101 -43.76120916 52.37577371 -43.57894135 50.70581818 C-41.69446729 33.52023946 -38.70399188 18.5540232 -24.92285156 6.88769531 C-17.39975579 1.55028226 -9.07537046 0.05576391 0 0 Z " fill="#000000" transform="translate(1074.4892578125,101.8388671875)"/>
<path d="M0 0 C5.61 0 11.22 0 17 0 C16.30003983 12.3495798 14.80680959 24.56942397 13.30152702 36.84249115 C12.83156857 40.67689241 12.36639074 44.51184735 11.90248108 48.34698486 C10.66723176 58.55259544 9.42544637 68.75740567 8.17881447 78.96163201 C7.27773493 86.33747312 6.38211551 93.71394537 5.49160957 101.09107208 C5.18408471 103.62855616 4.87430353 106.16576789 4.56217766 108.70269012 C4.1257962 112.25005238 3.69676956 115.79823562 3.26928711 119.34667969 C3.13994781 120.38276871 3.01060852 121.41885773 2.87734985 122.48634338 C1.27966843 134.57782313 1.27966843 134.57782313 3.5 146.375 C3.7784375 147.16648438 4.056875 147.95796875 4.34375 148.7734375 C7.32145474 152.77648397 11.71698801 154.64922035 16.55271912 155.39221954 C19.49808308 155.56947336 22.42235322 155.62540469 25.37304688 155.63769531 C26.48612213 155.65778656 27.59919739 155.67787781 28.7460022 155.69857788 C32.40356491 155.76006939 36.06083603 155.79426244 39.71875 155.828125 C42.26324965 155.86556235 44.80772466 155.90471023 47.35217285 155.94549561 C53.35127396 156.0375417 59.35034871 156.11240907 65.34976816 156.17884135 C72.18439497 156.25548926 79.01864737 156.35425472 85.85295773 156.45480967 C99.9016981 156.66102035 113.95067648 156.83889403 128 157 C127.67 161.95 127.34 166.9 127 172 C112.36077952 172.04646218 97.72157492 172.08207289 83.08229542 172.10362434 C76.28376047 172.11390071 69.48527241 172.12789068 62.68676758 172.15087891 C56.11856452 172.17307765 49.55039175 172.18458902 42.98215294 172.18975449 C40.48370284 172.19343289 37.98525522 172.20061564 35.48682594 172.21146011 C-1.52415971 172.36563134 -1.52415971 172.36563134 -10.58984375 163.43359375 C-19.0011761 152.92552348 -16.13069378 137.44284845 -14.8828125 125.06640625 C-14.75343292 123.75869766 -14.62405334 122.45098907 -14.49075317 121.10365295 C-12.38288583 100.17171047 -9.79347384 79.28865425 -7.28955078 58.40136719 C-6.73074795 53.73217136 -6.17559962 49.06254397 -5.62051201 44.39290524 C-5.08295087 39.87264473 -4.54386805 35.35256683 -4.00424576 30.83255196 C-3.74798227 28.6856201 -3.49202447 26.53865172 -3.23638535 24.39164543 C-2.88152799 21.41448643 -2.52479016 18.43755891 -2.16748047 15.46069336 C-2.06358002 14.58654282 -1.95967957 13.71239227 -1.85263062 12.81175232 C-1.70561707 11.59183594 -1.70561707 11.59183594 -1.55563354 10.34727478 C-1.47195967 9.64826018 -1.38828579 8.94924559 -1.30207634 8.22904873 C-0.92913251 5.47706234 -0.45655929 2.73935573 0 0 Z " fill="#000000" transform="translate(35,55)"/>
<path d="M0 0 C1.41100983 0.0001133 1.41100983 0.0001133 2.8505249 0.00022888 C3.85794739 0.00539017 4.86536987 0.01055145 5.90332031 0.01586914 C6.94087463 0.01728409 7.97842896 0.01869904 9.04742432 0.02015686 C12.35879407 0.02575092 15.67009602 0.03830236 18.98144531 0.05102539 C21.22753809 0.05604116 23.47363192 0.06060393 25.71972656 0.06469727 C31.22365592 0.0757184 36.72754577 0.09245065 42.23144531 0.11352539 C42.09118248 2.42636995 41.94408973 4.7388013 41.79394531 7.05102539 C41.67212891 8.98268555 41.67212891 8.98268555 41.54785156 10.95336914 C41.23144531 14.11352539 41.23144531 14.11352539 40.23144531 15.11352539 C38.89785574 15.21473489 37.55908996 15.24918535 36.22167969 15.25537109 C34.94399719 15.26592278 34.94399719 15.26592278 33.64050293 15.27668762 C32.71145142 15.2808519 31.7823999 15.28501617 30.82519531 15.28930664 C28.86424732 15.31252556 26.90330981 15.3366437 24.94238281 15.36157227 C21.8462851 15.39654399 18.75056709 15.42594195 15.65429688 15.43945312 C12.66912286 15.45503587 9.6850693 15.49533512 6.70019531 15.53930664 C5.78733765 15.53739822 4.87447998 15.53548981 3.93395996 15.53352356 C-3.76041371 15.67820613 -9.94911852 17.47796549 -15.64355469 22.80102539 C-20.92749156 31.03775052 -20.98786274 37.96453009 -21.76855469 48.11352539 C-10.21855469 48.44352539 1.33144531 48.77352539 13.23144531 49.11352539 C13.23144531 58.11352539 13.23144531 58.11352539 12.23144531 64.11352539 C0.02144531 64.11352539 -12.18855469 64.11352539 -24.76855469 64.11352539 C-25.09855469 69.39352539 -25.42855469 74.67352539 -25.76855469 80.11352539 C-26.1343803 83.57896624 -26.52211532 87.01624215 -26.98364258 90.46704102 C-27.10083145 91.3764595 -27.21802032 92.28587799 -27.33876038 93.22285461 C-27.71793634 96.15583283 -28.10446566 99.08778662 -28.49121094 102.01977539 C-28.75928604 104.08193064 -29.02689135 106.144147 -29.29405212 108.2064209 C-29.99136007 113.57937172 -30.6949576 118.95147986 -31.39996338 124.32342529 C-32.1211019 129.82717329 -32.8361576 135.33171131 -33.55175781 140.83618164 C-34.95147551 151.59606862 -36.3578531 162.35507336 -37.76855469 173.11352539 C-43.04855469 172.78352539 -48.32855469 172.45352539 -53.76855469 172.11352539 C-50.94321436 146.30217175 -48.0061499 120.50435774 -44.95385742 94.71882057 C-44.28814797 89.09376568 -43.62735806 83.46822334 -42.97753906 77.84130859 C-42.33526154 72.28068566 -41.68103759 66.72158682 -41.01849365 61.16334343 C-40.77197208 59.07847568 -40.52954236 56.99311928 -40.29156494 54.90725899 C-38.22320886 36.82183574 -36.01271575 19.20317806 -21.20996094 6.80493164 C-14.97245847 2.48358993 -7.58371903 -0.02038634 0 0 Z " fill="#000000" transform="translate(375.7685546875,54.886474609375)"/>
<path d="M0 0 C4.95 0 9.9 0 15 0 C15.18611236 7.58205568 14.4646911 14.91364586 13.5625 22.4375 C13.42779297 23.62021484 13.29308594 24.80292969 13.15429688 26.02148438 C12.13160878 34.73678244 12.13160878 34.73678244 11 37 C22.88 37 34.76 37 47 37 C47 41.29 47 45.58 47 50 C42.62498963 51.75000415 40.53299898 52.26894405 36.03515625 52.37890625 C34.90529297 52.41306641 33.77542969 52.44722656 32.61132812 52.48242188 C31.44021484 52.50884766 30.26910156 52.53527344 29.0625 52.5625 C26.74079063 52.62275419 24.41916734 52.68644353 22.09765625 52.75390625 C21.07164307 52.77783447 20.04562988 52.8017627 18.98852539 52.82641602 C15.93168932 53.00396772 13.0143115 53.47588352 10 54 C8.94568998 62.08408523 7.90188265 70.16943302 6.87078857 78.25650883 C6.39149075 82.01322305 5.90883393 85.76943646 5.41796875 89.5246582 C4.94276038 93.1611313 4.47706977 96.79871717 4.01745605 100.43719292 C3.84214065 101.81239187 3.66362494 103.18718746 3.48156738 104.56151009 C0.55762833 122.29881398 0.55762833 122.29881398 5 139 C8.97708611 142.67880466 12.00527706 144.09752705 17.37963867 144.20532227 C18.26032516 144.22526749 19.14101166 144.24521271 20.04838562 144.26576233 C20.99534805 144.28247482 21.94231049 144.29918732 22.91796875 144.31640625 C23.89034988 144.33718735 24.86273102 144.35796844 25.86457825 144.37937927 C28.97214665 144.44478748 32.07979985 144.50371929 35.1875 144.5625 C37.29362858 144.60569351 39.39974856 144.64930807 41.50585938 144.69335938 C46.67048591 144.80045999 51.83519778 144.90175219 57 145 C57 149.95 57 154.9 57 160 C50.34719245 160.0745659 43.69463216 160.12879834 37.04150391 160.16479492 C34.78169513 160.17981295 32.52191516 160.20023345 30.26220703 160.22631836 C27.00025286 160.26300995 23.73868653 160.27979675 20.4765625 160.29296875 C19.47823395 160.30845261 18.4799054 160.32393646 17.45132446 160.33988953 C7.2985706 160.34228532 -1.58769325 158.28023892 -9 151 C-14.14948251 144.90710084 -16.18515317 137.99338683 -15.89089966 130.05767822 C-15.26959468 122.701033 -14.51983471 115.37421455 -13.6171875 108.046875 C-13.48209778 106.9313475 -13.34700806 105.81582001 -13.20782471 104.66648865 C-12.76636657 101.0273102 -12.32080151 97.38864872 -11.875 93.75 C-11.56474608 91.2022536 -11.25469073 88.654483 -10.94482422 86.10668945 C-10.29770691 80.79111851 -9.64869037 75.47578461 -8.99804688 70.16064453 C-8.24704214 64.02545353 -7.49946266 57.88985254 -6.75372887 51.75401878 C-6.03313014 45.82549617 -5.31032362 39.89724443 -4.58648682 33.96911621 C-4.27977026 31.45575231 -3.97357399 28.94232486 -3.66790771 26.42883301 C-3.24144413 22.92497599 -2.81247962 19.42143418 -2.3828125 15.91796875 C-2.25706848 14.88103378 -2.13132446 13.84409882 -2.00177002 12.77574158 C-1.88404236 11.82002762 -1.7663147 10.86431366 -1.64501953 9.87963867 C-1.54399933 9.05308273 -1.44297913 8.22652679 -1.33889771 7.37492371 C-0.98594252 4.90148816 -0.48999453 2.44997267 0 0 Z " fill="#000000" transform="translate(424,67)"/>
<path d="M0 0 C1.39456452 0.00667256 2.78911118 0.01863093 4.18359375 0.03515625 C4.89451172 0.03966797 5.60542969 0.04417969 6.33789062 0.04882812 C8.09899388 0.06064761 9.86005411 0.07858362 11.62109375 0.09765625 C10.99603681 12.534134 9.28998833 24.76234849 7.62109375 37.09765625 C19.50109375 37.09765625 31.38109375 37.09765625 43.62109375 37.09765625 C43.29109375 41.71765625 42.96109375 46.33765625 42.62109375 51.09765625 C30.28777494 52.33098813 18.00398892 52.19606537 5.62109375 52.09765625 C5.57480835 53.23678467 5.57480835 53.23678467 5.52758789 54.39892578 C4.73667013 69.2698603 2.51926615 83.99238024 0.55688477 98.74414062 C0.07219288 102.40042923 -0.40556131 106.05757765 -0.8828125 109.71484375 C-1.1077816 111.37916946 -1.1077816 111.37916946 -1.33729553 113.07711792 C-3.34833351 127.49892325 -3.34833351 127.49892325 2.37109375 140.41015625 C7.97121759 144.61024913 14.7783576 144.42384711 21.4921875 144.51171875 C22.87568138 144.54076797 22.87568138 144.54076797 24.28712463 144.57040405 C27.21085586 144.62981745 30.13462728 144.67643134 33.05859375 144.72265625 C35.05014665 144.76087127 37.04168365 144.79992502 39.03320312 144.83984375 C43.89570298 144.93548729 48.75828013 145.01965846 53.62109375 145.09765625 C53.71147474 150.24937248 53.46790508 155.01678829 52.62109375 160.09765625 C46.25317151 160.17421854 39.88536959 160.22646948 33.51708984 160.26245117 C31.3542843 160.27746393 29.19150882 160.29788041 27.02880859 160.32397461 C23.90584864 160.36068991 20.78329395 160.37745821 17.66015625 160.390625 C16.22828476 160.41385078 16.22828476 160.41385078 14.76748657 160.43754578 C5.23158424 160.43989393 -3.90664237 158.30316295 -11.37890625 152.09765625 C-18.66460801 144.40719328 -19.53599214 137.17468715 -19.48390007 126.86724281 C-19.32891074 121.30267073 -18.72070941 115.8434689 -18.01782227 110.32495117 C-17.873125 109.13457748 -17.72842773 107.9442038 -17.5793457 106.71775818 C-17.18676137 103.50293315 -16.78674714 100.28914965 -16.38290143 97.07572341 C-15.95998886 93.69768712 -15.54616602 90.31853565 -15.13108826 86.93952942 C-14.43489834 81.28309431 -13.73218886 75.62750039 -13.02514648 69.97241211 C-12.20741145 63.43156367 -11.39876452 56.88964156 -10.5951429 50.34704512 C-9.81979838 44.03537405 -9.03953598 37.72432194 -8.2565136 31.41359901 C-7.92383388 28.73235792 -7.59263721 26.05093976 -7.26257515 23.36937523 C-6.80252662 19.64177008 -6.33681758 15.9149178 -5.86938477 12.18823242 C-5.66438606 10.51543213 -5.66438606 10.51543213 -5.45524597 8.80883789 C-5.26386551 7.29733406 -5.26386551 7.29733406 -5.06861877 5.7552948 C-4.95892541 4.8747301 -4.84923204 3.9941654 -4.73621464 3.08691692 C-4.12451741 -0.31861535 -3.64980584 0.10548572 0 0 Z " fill="#000000" transform="translate(1543.37890625,70.90234375)"/>
<path d="M0 0 C1.30097122 0.00007553 2.60194244 0.00015106 3.94233704 0.00022888 C5.35242756 0.00533477 6.76251769 0.01055075 8.17260742 0.01586914 C9.62277681 0.0177356 11.07294682 0.01915843 12.52311707 0.02015686 C16.32890583 0.02396409 20.13465608 0.03377897 23.94042969 0.04486084 C27.82836384 0.05511362 31.71630425 0.05966275 35.60424805 0.06469727 C43.2247103 0.07540293 50.84513292 0.09298511 58.46557617 0.11352539 C57.80557617 5.06352539 57.14557617 10.01352539 56.46557617 15.11352539 C54.85183105 15.10305176 53.23808594 15.09257813 51.57543945 15.08178711 C45.55576824 15.04543144 39.53610664 15.02256836 33.51635742 15.00366211 C30.91705693 14.99363993 28.31776762 14.9800186 25.71850586 14.96264648 C21.97010531 14.93823161 18.22185458 14.9270041 14.47338867 14.91821289 C13.32194366 14.90789032 12.17049866 14.89756775 10.98416138 14.88693237 C1.3226936 14.88560604 -9.11469474 15.11551416 -16.53442383 22.11352539 C-22.07987062 29.88744224 -22.9012458 38.9078829 -23.97192383 48.11352539 C-24.16994072 49.69631813 -24.36952999 51.27891483 -24.57055664 52.86132812 C-25.12625277 57.28180066 -25.65648219 61.70498872 -26.18035889 66.1293335 C-26.55752546 69.30823456 -26.93928145 72.48656023 -27.32202148 75.66479492 C-27.45749893 76.79019684 -27.59297638 77.91559875 -27.7325592 79.07510376 C-27.86955734 80.21313446 -28.00655548 81.35116516 -28.14770508 82.52368164 C-28.96320303 89.30065007 -29.77463101 96.07799504 -30.56738281 102.85766602 C-30.69102707 103.9082872 -30.81467133 104.95890839 -30.94206238 106.04136658 C-31.17485863 108.02138992 -31.4056119 110.0016549 -31.63398743 111.98219299 C-31.73809433 112.86479294 -31.84220123 113.74739288 -31.94946289 114.65673828 C-32.08339447 115.80838219 -32.08339447 115.80838219 -32.22003174 116.98329163 C-32.53442383 119.11352539 -32.53442383 119.11352539 -33.53442383 123.11352539 C-38.48442383 123.11352539 -43.43442383 123.11352539 -48.53442383 123.11352539 C-48.83309506 114.20699595 -47.71429161 105.46036017 -46.70629883 96.62915039 C-46.51401605 94.92438681 -46.32181786 93.21961368 -46.12969971 91.51483154 C-45.72654115 87.95061014 -45.31898614 84.38692101 -44.90893555 80.82348633 C-44.38831047 76.29186834 -43.88380158 71.75861506 -43.38331223 67.22473526 C-42.99195221 63.70438813 -42.58925616 60.18540171 -42.18357086 56.66667938 C-41.99297718 54.99765359 -41.80637517 53.32816629 -41.62410736 51.65821075 C-39.76025915 34.66073073 -36.69880482 17.92441738 -22.64770508 6.54711914 C-15.53130395 1.71954203 -8.53247645 -0.01656792 0 0 Z " fill="#000000" transform="translate(770.534423828125,101.886474609375)"/>
<path d="M0 0 C5.28 0 10.56 0 16 0 C13.30722452 24.67064517 10.45457728 49.31920235 7.48071289 73.95751953 C6.91301039 78.66171224 6.34926073 83.3663703 5.78639698 88.0711441 C5.34636486 91.74470231 4.90399984 95.41797672 4.46094322 99.09117126 C4.25162573 100.82940573 4.04310798 102.5677367 3.83542824 104.3061676 C3.54872258 106.70376134 3.25879286 109.10094377 2.96801758 111.49804688 C2.88438965 112.20321945 2.80076172 112.90839203 2.71459961 113.63493347 C2.32142223 116.8492051 1.7879225 119.84831002 1 123 C-3.95 123 -8.9 123 -14 123 C-14.14752963 116.05335566 -13.58716201 109.40097734 -12.71484375 102.51342773 C-12.57829376 101.40020645 -12.44174377 100.28698517 -12.30105591 99.14002991 C-11.85170042 95.48722599 -11.39465529 91.83542898 -10.9375 88.18359375 C-10.62314048 85.64060751 -10.309264 83.09756151 -9.99584961 80.55445862 C-9.25613925 74.56187 -8.51158638 68.56990262 -7.76464367 62.5782128 C-6.9138924 55.75158354 -6.06939242 48.92418547 -5.2253933 42.09671867 C-3.49050576 28.06361787 -1.74762445 14.03151976 0 0 Z " fill="#000000" transform="translate(999,102)"/>
<path d="M0 0 C1 1 1 1 1.09765625 3.28515625 C1.08605469 4.20167969 1.07445312 5.11820312 1.0625 6.0625 C1.05347656 6.98160156 1.04445313 7.90070313 1.03515625 8.84765625 C1.02355469 9.55792969 1.01195312 10.26820313 1 11 C-1.68063429 10.52694689 -4.04014365 9.98335507 -6.5625 8.9375 C-12.86664324 7.21818821 -19.37711732 7.07969029 -25.5625 9.25 C-28.07600608 11.05456847 -29.58444338 12.24752879 -31 15 C-31.52124242 18.49977051 -31.41872882 20.30366091 -29.5859375 23.3515625 C-25.95860971 27.06655984 -21.77768503 29.08415641 -17.1875 31.4375 C0.21334053 40.40001963 0.21334053 40.40001963 3.6875 49.875 C4.60880438 56.13986979 4.12005125 61.47818268 1 67 C-3.82079024 73.25856979 -10.46944947 74.83996654 -18 76 C-25.99135616 76.8731072 -34.76303037 75.61848482 -42 72 C-42 68.04 -42 64.08 -42 60 C-39.29817708 61.26953125 -36.59635417 62.5390625 -33.89453125 63.80859375 C-27.32803294 66.51140344 -19.74399648 67.3868712 -13.0625 64.625 C-9.99216567 63.18762564 -9.99216567 63.18762564 -8 61 C-7.12362383 57.42708179 -6.67409613 54.95443277 -7.875 51.4375 C-12.02413207 46.67820145 -17.4734792 43.81187287 -22.97265625 40.828125 C-23.67624268 40.44366211 -24.3798291 40.05919922 -25.10473633 39.66308594 C-26.50535594 38.90371962 -27.91257518 38.1563675 -29.3269043 37.42285156 C-35.0486622 34.33755573 -39.71986639 30.32390649 -42 24 C-42.7151077 17.85193122 -42.71642176 12.15503664 -39 7 C-29.33147426 -3.90394847 -13.11905766 -4.40602314 0 0 Z " fill="#000000" transform="translate(1024,294)"/>
<path d="M0 0 C0 3.3 0 6.6 0 10 C-2.79854616 9.49117343 -5.36844576 8.87217188 -8.0625 7.9375 C-16.14753759 5.6350219 -24.2869985 6.32616784 -31.8828125 9.80859375 C-37.76504067 13.1187037 -42.34822578 19.37710988 -44.62109375 25.73828125 C-46.20521652 35.19402439 -46.4797513 46.7957656 -41 55 C-35.92687515 60.89245696 -30.15146774 64.44999367 -22.40234375 65.27734375 C-15.75788425 65.51097453 -10.23512708 64.14506154 -4 62 C-2.02 61.505 -2.02 61.505 0 61 C0 64.3 0 67.6 0 71 C-12.84377957 75.47586258 -24.94486247 76.85687634 -38 72 C-41.0279226 70.32064797 -43.49237824 68.37830494 -46 66 C-46.55429687 65.48566406 -47.10859375 64.97132813 -47.6796875 64.44140625 C-55.64056703 56.18347898 -57.09901417 45.05245672 -57 34 C-56.19438453 22.18910171 -52.16817915 13.13339669 -43.5390625 4.98046875 C-31.02114686 -4.78350545 -14.49252929 -5.35108774 0 0 Z " fill="#000000" transform="translate(479,295)"/>
<path d="M0 0 C5.21191082 3.11175266 8.74308973 7.51863243 10.5 13.375 C11.78833168 18.91482622 11.5 23.40284067 11.5 29.375 C-1.04 29.375 -13.58 29.375 -26.5 29.375 C-22.74431455 39.88414382 -22.74431455 39.88414382 -14.5 45.375 C-7.22022836 46.45627869 -1.90508257 44.63648376 4.5 41.375 C5.49 41.045 6.48 40.715 7.5 40.375 C7.5 43.675 7.5 46.975 7.5 50.375 C-1.76696159 55.0084808 -11.45693631 56.25797847 -21.5390625 53.5625 C-27.84409706 50.81952424 -31.91965907 46.75417619 -34.5 40.375 C-37.05697538 30.05577792 -37.71372356 19.5414685 -32.3125 10.0625 C-24.91161608 -0.56944829 -12.46525052 -5.69840024 0 0 Z M-21.5 10.375 C-23.93709829 13.5288919 -25.5 16.29780723 -25.5 20.375 C-16.59 20.375 -7.68 20.375 1.5 20.375 C0.63130128 13.26314311 0.63130128 13.26314311 -3.5 8.375 C-9.32237644 4.15879637 -16.39337605 6.02678555 -21.5 10.375 Z " fill="#000000" transform="translate(1229.5,314.625)"/>
<path d="M0 0 C1.2684375 -0.01675781 2.536875 -0.03351563 3.84375 -0.05078125 C8.94761422 0.45633346 12.22826973 1.97011805 15.75 5.6875 C19.60885474 11.47578211 19.77362387 16.21442374 19.6953125 22.98828125 C19.6924826 23.9134404 19.68965271 24.83859955 19.68673706 25.79179382 C19.67557392 28.73632942 19.65047637 31.68055688 19.625 34.625 C19.61496521 36.62564664 19.60584023 38.62629806 19.59765625 40.62695312 C19.57564722 45.5222535 19.54114391 50.41732457 19.5 55.3125 C16.53 55.3125 13.56 55.3125 10.5 55.3125 C10.005 52.3425 10.005 52.3425 9.5 49.3125 C8.7575 50.09625 8.015 50.88 7.25 51.6875 C1.95442758 56.74236458 -2.20398301 56.6907741 -9.36328125 56.5625 C-14.57292557 56.14728551 -17.26889231 54.61015406 -20.8125 50.875 C-23.80640166 46.32870489 -24.19340371 41.70346965 -23.5 36.3125 C-21.61040202 30.35216808 -19.02261307 27.39923473 -13.5 24.3125 C-10.7993626 23.60093837 -8.30061752 23.04724518 -5.5625 22.625 C-4.54639648 22.45000977 -4.54639648 22.45000977 -3.50976562 22.27148438 C0.8149292 21.53757164 5.1558015 20.91853551 9.5 20.3125 C8.54590484 14.94404414 8.54590484 14.94404414 5.9375 10.3125 C1.30680444 8.41272746 -3.238168 8.51038067 -7.9453125 10.1796875 C-9.46462456 10.86663718 -10.97057253 11.5844303 -12.45703125 12.33984375 C-14.46432914 13.29551713 -16.33165213 13.84959427 -18.5 14.3125 C-18.78776505 11.2621905 -18.92750932 8.35376881 -18.5 5.3125 C-16.375 3.375 -16.375 3.375 -13.5 2.3125 C-12.60539063 1.96703125 -11.71078125 1.6215625 -10.7890625 1.265625 C-7.06589494 0.18670233 -3.8727384 0.01180713 0 0 Z M0.6875 29.625 C-0.38081055 29.80192383 -0.38081055 29.80192383 -1.47070312 29.98242188 C-5.70562697 30.74635356 -8.96928641 31.69640936 -12.5 34.3125 C-14.04586876 37.40423752 -13.79359521 39.90679552 -13.5 43.3125 C-11.63291495 45.67747439 -10.17938569 46.97280715 -7.5 48.3125 C-1.39932061 48.91060582 1.63912777 47.77119755 6.5 44.3125 C10.53025157 39.87922327 10.20973921 34.02763488 10.5 28.3125 C7.17933157 28.3125 3.94703112 29.04159327 0.6875 29.625 Z " fill="#000000" transform="translate(600.5,312.6875)"/>
<path d="M0 0 C1.2684375 -0.01675781 2.536875 -0.03351563 3.84375 -0.05078125 C8.94761422 0.45633346 12.22826973 1.97011805 15.75 5.6875 C19.60885474 11.47578211 19.77362387 16.21442374 19.6953125 22.98828125 C19.6924826 23.9134404 19.68965271 24.83859955 19.68673706 25.79179382 C19.67557392 28.73632942 19.65047637 31.68055688 19.625 34.625 C19.61496521 36.62564664 19.60584023 38.62629806 19.59765625 40.62695312 C19.57564722 45.5222535 19.54114391 50.41732457 19.5 55.3125 C16.53 55.3125 13.56 55.3125 10.5 55.3125 C10.005 52.3425 10.005 52.3425 9.5 49.3125 C8.7575 50.09625 8.015 50.88 7.25 51.6875 C1.95442758 56.74236458 -2.20398301 56.6907741 -9.36328125 56.5625 C-14.57292557 56.14728551 -17.26889231 54.61015406 -20.8125 50.875 C-23.80640166 46.32870489 -24.19340371 41.70346965 -23.5 36.3125 C-21.61040202 30.35216808 -19.02261307 27.39923473 -13.5 24.3125 C-10.7993626 23.60093837 -8.30061752 23.04724518 -5.5625 22.625 C-4.54639648 22.45000977 -4.54639648 22.45000977 -3.50976562 22.27148438 C0.8149292 21.53757164 5.1558015 20.91853551 9.5 20.3125 C8.54590484 14.94404414 8.54590484 14.94404414 5.9375 10.3125 C1.30680444 8.41272746 -3.238168 8.51038067 -7.9453125 10.1796875 C-9.46462456 10.86663718 -10.97057253 11.5844303 -12.45703125 12.33984375 C-14.46432914 13.29551713 -16.33165213 13.84959427 -18.5 14.3125 C-18.78776505 11.2621905 -18.92750932 8.35376881 -18.5 5.3125 C-16.375 3.375 -16.375 3.375 -13.5 2.3125 C-12.60539062 1.96703125 -11.71078125 1.6215625 -10.7890625 1.265625 C-7.06589494 0.18670233 -3.8727384 0.01180713 0 0 Z M0.6875 29.625 C-0.38081055 29.80192383 -0.38081055 29.80192383 -1.47070312 29.98242188 C-5.70562697 30.74635356 -8.96928641 31.69640936 -12.5 34.3125 C-14.04586876 37.40423752 -13.79359521 39.90679552 -13.5 43.3125 C-11.63291495 45.67747439 -10.17938569 46.97280715 -7.5 48.3125 C-1.39932061 48.91060582 1.63912777 47.77119755 6.5 44.3125 C10.53025157 39.87922327 10.20973921 34.02763488 10.5 28.3125 C7.17933157 28.3125 3.94703112 29.04159327 0.6875 29.625 Z " fill="#000000" transform="translate(511.5,312.6875)"/>
<path d="M0 0 C6.9678254 4.39508987 11.04182494 10.33568934 13.0625 18.25 C13.91551072 28.69938135 13.34947277 37.526597 7.09375 46.296875 C2.40359917 51.60415094 -3.05906018 54.01368731 -10.0078125 54.5859375 C-18.18477275 54.80421365 -24.9768327 54.5305142 -31.6875 49.3125 C-39.01433847 41.7256276 -40.10905614 34.64112334 -40.04663086 24.47924805 C-39.87241387 16.87857636 -38.87820592 11.77565709 -33.62890625 6.078125 C-25.06722307 -2.06485867 -11.18281151 -5.28136605 0 0 Z M-26.4375 12.0625 C-30.33961599 17.69888976 -31.46643914 23.52819135 -30.6875 30.3125 C-29.51795936 36.56422632 -27.40179233 40.27490079 -22.40625 44.21875 C-18.14071921 46.93317869 -13.55977259 46.77136129 -8.6875 46.3125 C-2.97049774 44.26300862 -0.0736422 41.15409151 2.5625 35.75 C4.27952962 27.88028093 4.23186953 20.41530843 0.5234375 13.15625 C-1.89856145 9.46856127 -4.56760858 7.68579714 -8.6875 6.3125 C-16.12218727 5.57611193 -21.00306155 6.62806155 -26.4375 12.0625 Z " fill="#000000" transform="translate(892.6875,314.6875)"/>
<path d="M0 0 C3.63 0 7.26 0 11 0 C15.04912348 10.87971172 19.01897963 21.77865321 22.77758789 32.76269531 C23.05465576 33.56545898 23.33172363 34.36822266 23.6171875 35.1953125 C23.86065918 35.90703613 24.10413086 36.61875977 24.35498047 37.35205078 C24.87734993 39.01092891 24.87734993 39.01092891 26 40 C30.95 26.8 35.9 13.6 41 0 C44.3 0 47.6 0 51 0 C50.34436924 3.8652548 49.21807698 7.2893582 47.77856445 10.93261719 C47.31750809 12.10443542 46.85645172 13.27625366 46.38142395 14.48358154 C45.87577857 15.75483941 45.36972049 17.02593318 44.86328125 18.296875 C44.34092461 19.61335373 43.81864293 20.9298622 43.2964325 22.24639893 C42.20088026 25.00473535 41.10161092 27.76155863 40.00024414 30.51757812 C38.59952857 34.02468085 37.21237855 37.53697516 35.82861042 41.05079269 C34.75380784 43.77336401 33.66951602 46.49208459 32.5826931 49.20987701 C32.06785787 50.50171789 31.55637494 51.79490061 31.04851723 53.08950043 C27.63661434 61.77291504 24.135919 69.96255526 17.375 76.5625 C12.31020096 78.71972922 7.42744515 78.31616185 2 78 C2 75.03 2 72.06 2 69 C3.92057292 69.13020833 5.84114583 69.26041667 7.76171875 69.390625 C11.03419437 68.81951233 12.57120769 67.23646407 15 65 C18.05836609 60.01961638 20.31220328 54.79063595 19.65103149 48.8807373 C18.67377724 45.66801193 17.47382119 42.67923695 16.11328125 39.609375 C15.66228561 38.4981427 15.21128998 37.3869104 14.74662781 36.24200439 C13.30917211 32.72621087 11.81279989 29.23937218 10.3125 25.75 C9.32210409 23.36236035 8.33573276 20.97304708 7.35351562 18.58203125 C5.20392862 13.36137165 3.01615612 8.15864327 0.79292297 2.96893311 C0 1 0 1 0 0 Z " fill="#000000" transform="translate(653,315)"/>
<path d="M0 0 C2.97 0 5.94 0 9 0 C9.01981934 0.92224365 9.03963867 1.8444873 9.06005859 2.79467773 C9.13871682 6.25585685 9.22542535 9.71664848 9.31738281 13.17749023 C9.3553815 14.66797273 9.39028196 16.15853789 9.421875 17.64916992 C8.9914704 31.4900596 8.9914704 31.4900596 14.25 43.5 C18.84153647 46.00447444 21.56499868 46.42060384 26.625 44.9375 C30.59098228 42.6607324 31.84210264 41.01071269 34 37 C34.62049998 34.1106455 34.74060562 31.26899828 34.828125 28.3203125 C34.8668573 27.50754852 34.9055896 26.69478455 34.94549561 25.85739136 C35.06434324 23.28034449 35.15754612 20.70311506 35.25 18.125 C35.3264293 16.36971701 35.40453682 14.61450624 35.484375 12.859375 C35.67568018 8.57350848 35.84400627 4.28729109 36 0 C38.97 0 41.94 0 45 0 C45 17.49 45 34.98 45 53 C41.7 53 38.4 53 35 53 C34.505 51.02 34.505 51.02 34 49 C32.948125 49.928125 32.948125 49.928125 31.875 50.875 C26.65887604 54.73039597 21.41492368 55.75823676 15 55 C8.92607131 53.66396023 5.4749946 51.31469763 2 46 C0.01602813 40.46346498 -0.26849078 35.57662802 -0.1953125 29.78515625 C-0.1924826 28.92941513 -0.18965271 28.07367401 -0.18673706 27.19200134 C-0.17561935 24.48202009 -0.15053082 21.77237991 -0.125 19.0625 C-0.11495931 17.21549959 -0.10583537 15.36849396 -0.09765625 13.52148438 C-0.07570763 9.01419323 -0.04123654 4.50715427 0 0 Z " fill="#000000" transform="translate(1039,315)"/>
<path d="M0 0 C0.97324219 0.00644531 1.94648437 0.01289063 2.94921875 0.01953125 C5.3125 0.1875 5.3125 0.1875 6.3125 1.1875 C6.45365161 3.85808851 6.35497107 6.51182238 6.3125 9.1875 C4.45625 9.1565625 4.45625 9.1565625 2.5625 9.125 C-0.3515825 9.11983319 -2.89703327 9.25734442 -5.6875 10.1875 C-6.73632391 13.74821312 -6.99136953 17.24277897 -7.25 20.9375 C-7.33378906 22.10796875 -7.41757812 23.2784375 -7.50390625 24.484375 C-7.59478516 25.82242187 -7.59478516 25.82242187 -7.6875 27.1875 C-3.7275 27.1875 0.2325 27.1875 4.3125 27.1875 C4.3125 29.8275 4.3125 32.4675 4.3125 35.1875 C0.3525 35.1875 -3.6075 35.1875 -7.6875 35.1875 C-7.6875 50.0375 -7.6875 64.8875 -7.6875 80.1875 C-10.9875 80.1875 -14.2875 80.1875 -17.6875 80.1875 C-17.6875 65.3375 -17.6875 50.4875 -17.6875 35.1875 C-20.6575 35.1875 -23.6275 35.1875 -26.6875 35.1875 C-26.6875 32.5475 -26.6875 29.9075 -26.6875 27.1875 C-23.7175 27.1875 -20.7475 27.1875 -17.6875 27.1875 C-17.72230469 26.4140625 -17.75710938 25.640625 -17.79296875 24.84375 C-18.00497384 16.6866018 -17.72062574 10.76503292 -12.25 4.3125 C-8.10053476 0.87148004 -5.4155954 -0.07953478 0 0 Z " fill="#000000" transform="translate(842.6875,287.8125)"/>
<path d="M0 0 C1.29808594 -0.01417969 2.59617187 -0.02835937 3.93359375 -0.04296875 C7.31722799 0.17192298 9.54355663 0.71583782 12.5625 2.1875 C12.5625 5.4875 12.5625 8.7875 12.5625 12.1875 C11.263125 11.6925 9.96375 11.1975 8.625 10.6875 C2.68912646 8.72445521 -2.5659424 8.13264211 -8.5 10.3125 C-10.67310779 12.10134318 -10.67310779 12.10134318 -11.25 15.0625 C-10.34632674 18.53816639 -10.04705402 18.83684917 -7.1875 20.6875 C-2.62689295 23.2202657 2.10380651 25.45098659 6.828125 27.66015625 C10.80203246 29.87986741 13.11193033 31.835791 14.5625 36.1875 C15.10106933 40.82272786 15.01428019 44.26656346 12.9375 48.5 C9.43112014 52.46774563 5.81398048 55.23843726 0.5625 56.1875 C-14.76040768 57.09604185 -14.76040768 57.09604185 -21.4375 53.1875 C-21.4375 49.8875 -21.4375 46.5875 -21.4375 43.1875 C-20.385625 43.620625 -20.385625 43.620625 -19.3125 44.0625 C-18.36375 44.43375 -17.415 44.805 -16.4375 45.1875 C-15.550625 45.55875 -14.66375 45.93 -13.75 46.3125 C-9.34007138 47.47738681 -4.96534788 47.88236774 -0.4375 47.1875 C2.59743267 45.38649324 3.40519909 44.79048682 4.3125 41.3125 C3.47155061 37.80854419 3.1832384 37.54151855 0.3125 35.6875 C-4.24810705 33.1547343 -8.97880651 30.92401341 -13.703125 28.71484375 C-17.67703246 26.49513259 -19.98693033 24.539209 -21.4375 20.1875 C-21.97606933 15.55227214 -21.88928019 12.10843654 -19.8125 7.875 C-13.83892563 1.115429 -8.65500142 0.04288901 0 0 Z " fill="#000000" transform="translate(1315.4375,312.8125)"/>
<path d="M0 0 C1.29808594 -0.01417969 2.59617187 -0.02835937 3.93359375 -0.04296875 C7.31722799 0.17192298 9.54355663 0.71583782 12.5625 2.1875 C12.5625 5.4875 12.5625 8.7875 12.5625 12.1875 C11.263125 11.6925 9.96375 11.1975 8.625 10.6875 C2.68912646 8.72445521 -2.5659424 8.13264211 -8.5 10.3125 C-10.67310779 12.10134318 -10.67310779 12.10134318 -11.25 15.0625 C-10.34632674 18.53816639 -10.04705402 18.83684917 -7.1875 20.6875 C-2.62689295 23.2202657 2.10380651 25.45098659 6.828125 27.66015625 C10.80203246 29.87986741 13.11193033 31.835791 14.5625 36.1875 C15.10106933 40.82272786 15.01428019 44.26656346 12.9375 48.5 C9.43112014 52.46774563 5.81398048 55.23843726 0.5625 56.1875 C-14.76040768 57.09604185 -14.76040768 57.09604185 -21.4375 53.1875 C-21.4375 49.8875 -21.4375 46.5875 -21.4375 43.1875 C-20.385625 43.620625 -20.385625 43.620625 -19.3125 44.0625 C-18.36375 44.43375 -17.415 44.805 -16.4375 45.1875 C-15.550625 45.55875 -14.66375 45.93 -13.75 46.3125 C-9.34007138 47.47738681 -4.96534788 47.88236774 -0.4375 47.1875 C2.59743267 45.38649324 3.40519909 44.79048682 4.3125 41.3125 C3.47155061 37.80854419 3.1832384 37.54151855 0.3125 35.6875 C-4.24810705 33.1547343 -8.97880651 30.92401341 -13.703125 28.71484375 C-17.67703246 26.49513259 -19.98693033 24.539209 -21.4375 20.1875 C-21.97606933 15.55227214 -21.88928019 12.10843654 -19.8125 7.875 C-13.83892563 1.115429 -8.65500142 0.04288901 0 0 Z " fill="#000000" transform="translate(1270.4375,312.8125)"/>
<path d="M0 0 C1.29808594 -0.01417969 2.59617187 -0.02835937 3.93359375 -0.04296875 C7.31722799 0.17192298 9.54355663 0.71583782 12.5625 2.1875 C12.5625 5.4875 12.5625 8.7875 12.5625 12.1875 C11.263125 11.6925 9.96375 11.1975 8.625 10.6875 C2.68912646 8.72445521 -2.5659424 8.13264211 -8.5 10.3125 C-10.67310779 12.10134318 -10.67310779 12.10134318 -11.25 15.0625 C-10.34632674 18.53816639 -10.04705402 18.83684917 -7.1875 20.6875 C-2.62689295 23.2202657 2.10380651 25.45098659 6.828125 27.66015625 C10.80203246 29.87986741 13.11193033 31.835791 14.5625 36.1875 C15.10106933 40.82272786 15.01428019 44.26656346 12.9375 48.5 C9.43112014 52.46774563 5.81398048 55.23843726 0.5625 56.1875 C-14.76040768 57.09604185 -14.76040768 57.09604185 -21.4375 53.1875 C-21.4375 49.8875 -21.4375 46.5875 -21.4375 43.1875 C-20.385625 43.620625 -20.385625 43.620625 -19.3125 44.0625 C-18.36375 44.43375 -17.415 44.805 -16.4375 45.1875 C-15.550625 45.55875 -14.66375 45.93 -13.75 46.3125 C-9.34007138 47.47738681 -4.96534788 47.88236774 -0.4375 47.1875 C2.59743267 45.38649324 3.40519909 44.79048682 4.3125 41.3125 C3.47155061 37.80854419 3.1832384 37.54151855 0.3125 35.6875 C-4.24810705 33.1547343 -8.97880651 30.92401341 -13.703125 28.71484375 C-17.67703246 26.49513259 -19.98693033 24.539209 -21.4375 20.1875 C-21.97606933 15.55227214 -21.88928019 12.10843654 -19.8125 7.875 C-13.83892563 1.115429 -8.65500142 0.04288901 0 0 Z " fill="#000000" transform="translate(730.4375,312.8125)"/>
<path d="M0 0 C0 3.3 0 6.6 0 10 C-1.134375 9.505 -2.26875 9.01 -3.4375 8.5 C-9.23910896 6.34364977 -14.38508334 6.09483654 -20.25 8.125 C-25.94573944 12.00845871 -28.69952746 16.26118773 -30 23 C-30.53262378 28.7523368 -29.60315373 33.85154039 -27 39 C-24.01484948 42.44189486 -20.681022 44.72005393 -16.0546875 45.203125 C-10.09628358 45.33126272 -5.5666179 44.12061634 0 42 C0 44.97 0 47.94 0 51 C-6.87493518 55.0243523 -14.22528125 54.86114962 -22 54 C-30.18771657 51.52144156 -34.74716015 47.18384544 -38.75 39.75 C-41.99958522 30.00124433 -41.483291 20.12571239 -37.3125 10.6875 C-34.06655418 4.84240199 -28.88755424 0.58177145 -22.51171875 -1.53515625 C-15.21636055 -2.88530808 -6.77025315 -3.24920371 0 0 Z " fill="#000000" transform="translate(1186,315)"/>
<path d="M0 0 C0 3.3 0 6.6 0 10 C-1.134375 9.505 -2.26875 9.01 -3.4375 8.5 C-9.23910896 6.34364977 -14.38508334 6.09483654 -20.25 8.125 C-25.94573944 12.00845871 -28.69952746 16.26118773 -30 23 C-30.53262378 28.7523368 -29.60315373 33.85154039 -27 39 C-24.01484948 42.44189486 -20.681022 44.72005393 -16.0546875 45.203125 C-10.09628358 45.33126272 -5.5666179 44.12061634 0 42 C0 44.97 0 47.94 0 51 C-6.87493518 55.0243523 -14.22528125 54.86114962 -22 54 C-30.18771657 51.52144156 -34.74716015 47.18384544 -38.75 39.75 C-41.99958522 30.00124433 -41.483291 20.12571239 -37.3125 10.6875 C-34.06655418 4.84240199 -28.88755424 0.58177145 -22.51171875 -1.53515625 C-15.21636055 -2.88530808 -6.77025315 -3.24920371 0 0 Z " fill="#000000" transform="translate(1137,315)"/>
<path d="M0 0 C0 5.28 0 10.56 0 16 C4.62 16 9.24 16 14 16 C14 18.64 14 21.28 14 24 C9.38 24 4.76 24 0 24 C0.12029932 28.30517993 0.24312899 32.61013755 0.37231445 36.91503906 C0.41545337 38.37756148 0.45714195 39.84012747 0.49731445 41.30273438 C0.5555307 43.4128936 0.61907288 45.52283775 0.68359375 47.6328125 C0.72025146 48.90012207 0.75690918 50.16743164 0.79467773 51.47314453 C0.98371036 54.72019016 1.3962073 57.80698948 2 61 C5.96 61 9.92 61 14 61 C14 63.64 14 66.28 14 69 C8.55300238 71.43681472 3.7180455 71.31734604 -2 70 C-6.1157254 67.59916018 -7.62428222 65.49020048 -9 61 C-9.16585708 58.10427801 -9.23341501 55.31009798 -9.1953125 52.41796875 C-9.1924826 51.60378983 -9.18965271 50.7896109 -9.18673706 49.95075989 C-9.17558584 47.362854 -9.15049083 44.77530042 -9.125 42.1875 C-9.11496365 40.42773939 -9.10583894 38.66797333 -9.09765625 36.90820312 C-9.0756631 32.60533402 -9.04116836 28.30272664 -9 24 C-11.97 24 -14.94 24 -18 24 C-18 21.36 -18 18.72 -18 16 C-15.03 16 -12.06 16 -9 16 C-9 11.38 -9 6.76 -9 2 C-3 0 -3 0 0 0 Z " fill="#000000" transform="translate(770,299)"/>
<path d="M0 0 C0 5.28 0 10.56 0 16 C4.62 16 9.24 16 14 16 C14 18.64 14 21.28 14 24 C9.38 24 4.76 24 0 24 C0.12029932 28.30517993 0.24312899 32.61013755 0.37231445 36.91503906 C0.41545337 38.37756148 0.45714195 39.84012747 0.49731445 41.30273438 C0.5555307 43.4128936 0.61907288 45.52283775 0.68359375 47.6328125 C0.72025146 48.90012207 0.75690918 50.16743164 0.79467773 51.47314453 C0.98371036 54.72019016 1.3962073 57.80698948 2 61 C5.96 61 9.92 61 14 61 C14 63.64 14 66.28 14 69 C8.55300238 71.43681472 3.7180455 71.31734604 -2 70 C-6.1157254 67.59916018 -7.62428222 65.49020048 -9 61 C-9.16585708 58.10427801 -9.23341501 55.31009798 -9.1953125 52.41796875 C-9.1924826 51.60378983 -9.18965271 50.7896109 -9.18673706 49.95075989 C-9.17558584 47.362854 -9.15049083 44.77530042 -9.125 42.1875 C-9.11496365 40.42773939 -9.10583894 38.66797333 -9.09765625 36.90820312 C-9.0756631 32.60533402 -9.04116836 28.30272664 -9 24 C-11.97 24 -14.94 24 -18 24 C-18 21.36 -18 18.72 -18 16 C-15.03 16 -12.06 16 -9 16 C-9 11.38 -9 6.76 -9 2 C-3 0 -3 0 0 0 Z " fill="#000000" transform="translate(557,299)"/>
<path d="M0 0 C3.3 0 6.6 0 10 0 C10 26.07 10 52.14 10 79 C6.7 79 3.4 79 0 79 C0 52.93 0 26.86 0 0 Z " fill="#000000" transform="translate(635,289)"/>
<path d="M0 0 C1.50433594 0.01353516 1.50433594 0.01353516 3.0390625 0.02734375 C3.80992187 0.03894531 4.58078125 0.05054688 5.375 0.0625 C5.375 3.3625 5.375 6.6625 5.375 10.0625 C3.580625 9.7221875 3.580625 9.7221875 1.75 9.375 C-2.59539999 8.86829258 -5.02920372 9.36565279 -8.625 12.0625 C-14.02255627 19.77187724 -13.29491895 28.52265332 -13.375 37.5625 C-13.4031948 39.16409432 -13.43312708 40.76565905 -13.46484375 42.3671875 C-13.53829515 46.2655716 -13.588122 50.1636054 -13.625 54.0625 C-16.925 54.0625 -20.225 54.0625 -23.625 54.0625 C-23.625 36.5725 -23.625 19.0825 -23.625 1.0625 C-20.325 1.0625 -17.025 1.0625 -13.625 1.0625 C-13.295 2.7125 -12.965 4.3625 -12.625 6.0625 C-11.84125 5.258125 -11.0575 4.45375 -10.25 3.625 C-6.58205663 0.04438862 -5.00047017 -0.058145 0 0 Z " fill="#000000" transform="translate(941.625,313.9375)"/>
<path d="M0 0 C6.27 0 12.54 0 19 0 C19 10.21538462 19 10.21538462 18.5625 13.9375 C18.48128906 14.66839844 18.40007813 15.39929688 18.31640625 16.15234375 C18 18 18 18 17 20 C10.73 20 4.46 20 -2 20 C-1.7834375 16.4421875 -1.7834375 16.4421875 -1.5625 12.8125 C-1.51939697 12.07491455 -1.47629395 11.3373291 -1.43188477 10.57739258 C-1.1986487 6.92599077 -0.7219525 3.60976249 0 0 Z " fill="#000000" transform="translate(1003,52)"/>
</svg>
